<mxfile host="app.diagrams.net" agent="Mozilla/5.0 (Windows NT 10.0; Win64; x64) AppleWebKit/537.36 (KHTML, like Gecko) Chrome/127.0.0.0 Safari/537.36" version="24.7.6">
  <diagram name="Page-1" id="GyMNfHjX5UR0qrV6uy74">
    <mxGraphModel dx="1363" dy="846" grid="1" gridSize="10" guides="1" tooltips="1" connect="1" arrows="1" fold="1" page="1" pageScale="1" pageWidth="850" pageHeight="1100" math="0" shadow="0">
      <root>
        <mxCell id="0" />
        <mxCell id="1" parent="0" />
        <mxCell id="vEpTsSg9mK53_fddwxGI-13" value="nim" style="ellipse;whiteSpace=wrap;html=1;align=center;fontStyle=4;" vertex="1" parent="1">
          <mxGeometry x="650" y="160" width="100" height="40" as="geometry" />
        </mxCell>
        <mxCell id="vEpTsSg9mK53_fddwxGI-14" value="nama_tengah" style="ellipse;whiteSpace=wrap;html=1;align=center;" vertex="1" parent="1">
          <mxGeometry x="210" y="90" width="100" height="40" as="geometry" />
        </mxCell>
        <mxCell id="vEpTsSg9mK53_fddwxGI-15" value="nim" style="ellipse;whiteSpace=wrap;html=1;align=center;fontStyle=4;" vertex="1" parent="1">
          <mxGeometry x="70" y="280" width="100" height="40" as="geometry" />
        </mxCell>
        <mxCell id="vEpTsSg9mK53_fddwxGI-16" value="nama_depan" style="ellipse;whiteSpace=wrap;html=1;align=center;" vertex="1" parent="1">
          <mxGeometry x="80" y="130" width="100" height="40" as="geometry" />
        </mxCell>
        <mxCell id="vEpTsSg9mK53_fddwxGI-17" value="nama_belakang" style="ellipse;whiteSpace=wrap;html=1;align=center;" vertex="1" parent="1">
          <mxGeometry x="320" y="130" width="100" height="40" as="geometry" />
        </mxCell>
        <mxCell id="vEpTsSg9mK53_fddwxGI-18" value="nama" style="ellipse;whiteSpace=wrap;html=1;align=center;" vertex="1" parent="1">
          <mxGeometry x="210" y="190" width="100" height="40" as="geometry" />
        </mxCell>
        <mxCell id="vEpTsSg9mK53_fddwxGI-19" value="jurusan" style="ellipse;whiteSpace=wrap;html=1;align=center;" vertex="1" parent="1">
          <mxGeometry x="50" y="340" width="100" height="40" as="geometry" />
        </mxCell>
        <mxCell id="vEpTsSg9mK53_fddwxGI-20" value="alamat" style="ellipse;whiteSpace=wrap;html=1;align=center;" vertex="1" parent="1">
          <mxGeometry x="130" y="390" width="100" height="40" as="geometry" />
        </mxCell>
        <mxCell id="vEpTsSg9mK53_fddwxGI-21" value="Mahasiswa" style="rounded=1;arcSize=10;whiteSpace=wrap;html=1;align=center;" vertex="1" parent="1">
          <mxGeometry x="210" y="320" width="100" height="40" as="geometry" />
        </mxCell>
        <mxCell id="vEpTsSg9mK53_fddwxGI-22" value="alamat" style="ellipse;whiteSpace=wrap;html=1;align=center;" vertex="1" parent="1">
          <mxGeometry x="470" y="240" width="100" height="40" as="geometry" />
        </mxCell>
        <mxCell id="vEpTsSg9mK53_fddwxGI-23" value="jurusan" style="ellipse;whiteSpace=wrap;html=1;align=center;" vertex="1" parent="1">
          <mxGeometry x="530" y="160" width="100" height="40" as="geometry" />
        </mxCell>
        <mxCell id="vEpTsSg9mK53_fddwxGI-24" value="nama" style="ellipse;whiteSpace=wrap;html=1;align=center;" vertex="1" parent="1">
          <mxGeometry x="670" y="240" width="100" height="40" as="geometry" />
        </mxCell>
        <mxCell id="vEpTsSg9mK53_fddwxGI-25" value="mendaftar" style="shape=rhombus;perimeter=rhombusPerimeter;whiteSpace=wrap;html=1;align=center;" vertex="1" parent="1">
          <mxGeometry x="570" y="295" width="120" height="90" as="geometry" />
        </mxCell>
        <mxCell id="vEpTsSg9mK53_fddwxGI-26" value="nama" style="ellipse;whiteSpace=wrap;html=1;align=center;" vertex="1" parent="1">
          <mxGeometry x="880" y="150" width="100" height="40" as="geometry" />
        </mxCell>
        <mxCell id="vEpTsSg9mK53_fddwxGI-27" value="jurusan" style="ellipse;whiteSpace=wrap;html=1;align=center;" vertex="1" parent="1">
          <mxGeometry x="1020" y="150" width="100" height="40" as="geometry" />
        </mxCell>
        <mxCell id="vEpTsSg9mK53_fddwxGI-28" value="nama_anggota" style="ellipse;whiteSpace=wrap;html=1;align=center;fontStyle=4;" vertex="1" parent="1">
          <mxGeometry x="840" y="210" width="100" height="40" as="geometry" />
        </mxCell>
        <mxCell id="vEpTsSg9mK53_fddwxGI-29" value="masa_berlaku" style="ellipse;whiteSpace=wrap;html=1;align=center;" vertex="1" parent="1">
          <mxGeometry x="1060" y="210" width="100" height="40" as="geometry" />
        </mxCell>
        <mxCell id="vEpTsSg9mK53_fddwxGI-30" value="Anggota&lt;div&gt;Perpustakaan&lt;/div&gt;" style="rounded=1;arcSize=10;whiteSpace=wrap;html=1;align=center;" vertex="1" parent="1">
          <mxGeometry x="950" y="315" width="120" height="50" as="geometry" />
        </mxCell>
        <mxCell id="vEpTsSg9mK53_fddwxGI-31" value="kode_peminjaman" style="ellipse;whiteSpace=wrap;html=1;align=center;" vertex="1" parent="1">
          <mxGeometry x="870" y="390" width="100" height="40" as="geometry" />
        </mxCell>
        <mxCell id="vEpTsSg9mK53_fddwxGI-32" value="tanggal_kembali" style="ellipse;whiteSpace=wrap;html=1;align=center;" vertex="1" parent="1">
          <mxGeometry x="830" y="440" width="100" height="40" as="geometry" />
        </mxCell>
        <mxCell id="vEpTsSg9mK53_fddwxGI-33" value="tanggal_pinjam" style="ellipse;whiteSpace=wrap;html=1;align=center;" vertex="1" parent="1">
          <mxGeometry x="840" y="490" width="100" height="40" as="geometry" />
        </mxCell>
        <mxCell id="vEpTsSg9mK53_fddwxGI-34" value="nomor_anggota" style="ellipse;whiteSpace=wrap;html=1;align=center;fontStyle=4;" vertex="1" parent="1">
          <mxGeometry x="1040" y="390" width="100" height="40" as="geometry" />
        </mxCell>
        <mxCell id="vEpTsSg9mK53_fddwxGI-35" value="nomor_buku" style="ellipse;whiteSpace=wrap;html=1;align=center;fontStyle=4;" vertex="1" parent="1">
          <mxGeometry x="1090" y="440" width="100" height="40" as="geometry" />
        </mxCell>
        <mxCell id="vEpTsSg9mK53_fddwxGI-36" value="judul_buku" style="ellipse;whiteSpace=wrap;html=1;align=center;" vertex="1" parent="1">
          <mxGeometry x="1090" y="500" width="100" height="40" as="geometry" />
        </mxCell>
        <mxCell id="vEpTsSg9mK53_fddwxGI-37" value="denda" style="ellipse;whiteSpace=wrap;html=1;align=center;" vertex="1" parent="1">
          <mxGeometry x="1040" y="550" width="100" height="40" as="geometry" />
        </mxCell>
        <mxCell id="vEpTsSg9mK53_fddwxGI-38" value="Relationship" style="shape=rhombus;perimeter=rhombusPerimeter;whiteSpace=wrap;html=1;align=center;" vertex="1" parent="1">
          <mxGeometry x="970" y="460" width="80" height="70" as="geometry" />
        </mxCell>
        <mxCell id="vEpTsSg9mK53_fddwxGI-39" value="judul_buku" style="ellipse;whiteSpace=wrap;html=1;align=center;" vertex="1" parent="1">
          <mxGeometry x="820" y="650" width="100" height="40" as="geometry" />
        </mxCell>
        <mxCell id="vEpTsSg9mK53_fddwxGI-40" value="Buku" style="rounded=1;arcSize=10;whiteSpace=wrap;html=1;align=center;" vertex="1" parent="1">
          <mxGeometry x="960" y="630" width="100" height="40" as="geometry" />
        </mxCell>
        <mxCell id="vEpTsSg9mK53_fddwxGI-41" value="pengarang" style="ellipse;whiteSpace=wrap;html=1;align=center;" vertex="1" parent="1">
          <mxGeometry x="1080" y="660" width="100" height="40" as="geometry" />
        </mxCell>
        <mxCell id="vEpTsSg9mK53_fddwxGI-42" value="jenis_buku" style="ellipse;whiteSpace=wrap;html=1;align=center;" vertex="1" parent="1">
          <mxGeometry x="1070" y="710" width="100" height="40" as="geometry" />
        </mxCell>
        <mxCell id="vEpTsSg9mK53_fddwxGI-43" value="penerbit" style="ellipse;whiteSpace=wrap;html=1;align=center;" vertex="1" parent="1">
          <mxGeometry x="1000" y="750" width="100" height="40" as="geometry" />
        </mxCell>
        <mxCell id="vEpTsSg9mK53_fddwxGI-44" value="tahun_terbit" style="ellipse;whiteSpace=wrap;html=1;align=center;" vertex="1" parent="1">
          <mxGeometry x="890" y="750" width="100" height="40" as="geometry" />
        </mxCell>
        <mxCell id="vEpTsSg9mK53_fddwxGI-45" value="&lt;span style=&quot;border-bottom: 1px dotted&quot;&gt;nomor_buku&lt;/span&gt;" style="ellipse;whiteSpace=wrap;html=1;align=center;" vertex="1" parent="1">
          <mxGeometry x="830" y="700" width="100" height="40" as="geometry" />
        </mxCell>
        <mxCell id="vEpTsSg9mK53_fddwxGI-47" value="" style="endArrow=none;html=1;rounded=0;exitX=0.5;exitY=0;exitDx=0;exitDy=0;" edge="1" parent="1" source="vEpTsSg9mK53_fddwxGI-18" target="vEpTsSg9mK53_fddwxGI-14">
          <mxGeometry relative="1" as="geometry">
            <mxPoint x="240" y="210" as="sourcePoint" />
            <mxPoint x="400" y="210" as="targetPoint" />
          </mxGeometry>
        </mxCell>
        <mxCell id="vEpTsSg9mK53_fddwxGI-49" value="" style="endArrow=none;html=1;rounded=0;entryX=0.5;entryY=1;entryDx=0;entryDy=0;exitX=0.5;exitY=0;exitDx=0;exitDy=0;" edge="1" parent="1" source="vEpTsSg9mK53_fddwxGI-18" target="vEpTsSg9mK53_fddwxGI-17">
          <mxGeometry relative="1" as="geometry">
            <mxPoint x="270" y="260" as="sourcePoint" />
            <mxPoint x="430" y="260" as="targetPoint" />
          </mxGeometry>
        </mxCell>
        <mxCell id="vEpTsSg9mK53_fddwxGI-50" value="" style="endArrow=none;html=1;rounded=0;exitX=0.5;exitY=1;exitDx=0;exitDy=0;entryX=0.5;entryY=0;entryDx=0;entryDy=0;" edge="1" parent="1" source="vEpTsSg9mK53_fddwxGI-16" target="vEpTsSg9mK53_fddwxGI-18">
          <mxGeometry relative="1" as="geometry">
            <mxPoint x="40" y="230" as="sourcePoint" />
            <mxPoint x="260" y="200" as="targetPoint" />
          </mxGeometry>
        </mxCell>
        <mxCell id="vEpTsSg9mK53_fddwxGI-52" value="" style="endArrow=none;html=1;rounded=0;exitX=0.5;exitY=1;exitDx=0;exitDy=0;entryX=0.5;entryY=0;entryDx=0;entryDy=0;" edge="1" parent="1" source="vEpTsSg9mK53_fddwxGI-18" target="vEpTsSg9mK53_fddwxGI-21">
          <mxGeometry relative="1" as="geometry">
            <mxPoint x="360" y="340" as="sourcePoint" />
            <mxPoint x="520" y="340" as="targetPoint" />
          </mxGeometry>
        </mxCell>
        <mxCell id="vEpTsSg9mK53_fddwxGI-53" value="" style="endArrow=none;html=1;rounded=0;exitX=1;exitY=0.5;exitDx=0;exitDy=0;entryX=0;entryY=0.5;entryDx=0;entryDy=0;" edge="1" parent="1" source="vEpTsSg9mK53_fddwxGI-15" target="vEpTsSg9mK53_fddwxGI-21">
          <mxGeometry relative="1" as="geometry">
            <mxPoint x="320" y="290" as="sourcePoint" />
            <mxPoint x="480" y="290" as="targetPoint" />
          </mxGeometry>
        </mxCell>
        <mxCell id="vEpTsSg9mK53_fddwxGI-54" value="" style="endArrow=none;html=1;rounded=0;exitX=1;exitY=0.5;exitDx=0;exitDy=0;entryX=0;entryY=0.5;entryDx=0;entryDy=0;" edge="1" parent="1" source="vEpTsSg9mK53_fddwxGI-19" target="vEpTsSg9mK53_fddwxGI-21">
          <mxGeometry relative="1" as="geometry">
            <mxPoint x="180" y="310" as="sourcePoint" />
            <mxPoint x="220" y="350" as="targetPoint" />
          </mxGeometry>
        </mxCell>
        <mxCell id="vEpTsSg9mK53_fddwxGI-55" value="" style="endArrow=none;html=1;rounded=0;exitX=0.5;exitY=0;exitDx=0;exitDy=0;entryX=0;entryY=0.5;entryDx=0;entryDy=0;" edge="1" parent="1" source="vEpTsSg9mK53_fddwxGI-20" target="vEpTsSg9mK53_fddwxGI-21">
          <mxGeometry relative="1" as="geometry">
            <mxPoint x="160" y="370" as="sourcePoint" />
            <mxPoint x="220" y="350" as="targetPoint" />
          </mxGeometry>
        </mxCell>
        <mxCell id="vEpTsSg9mK53_fddwxGI-56" value="" style="endArrow=none;html=1;rounded=0;entryX=1;entryY=0.5;entryDx=0;entryDy=0;exitX=0.5;exitY=0;exitDx=0;exitDy=0;" edge="1" parent="1" source="vEpTsSg9mK53_fddwxGI-25" target="vEpTsSg9mK53_fddwxGI-22">
          <mxGeometry relative="1" as="geometry">
            <mxPoint x="420" y="410" as="sourcePoint" />
            <mxPoint x="580" y="410" as="targetPoint" />
          </mxGeometry>
        </mxCell>
        <mxCell id="vEpTsSg9mK53_fddwxGI-57" value="" style="endArrow=none;html=1;rounded=0;entryX=0;entryY=0.5;entryDx=0;entryDy=0;exitX=0.5;exitY=0;exitDx=0;exitDy=0;" edge="1" parent="1" source="vEpTsSg9mK53_fddwxGI-25" target="vEpTsSg9mK53_fddwxGI-24">
          <mxGeometry relative="1" as="geometry">
            <mxPoint x="630" y="305" as="sourcePoint" />
            <mxPoint x="530" y="290" as="targetPoint" />
          </mxGeometry>
        </mxCell>
        <mxCell id="vEpTsSg9mK53_fddwxGI-58" value="" style="endArrow=none;html=1;rounded=0;entryX=0.5;entryY=1;entryDx=0;entryDy=0;exitX=0.5;exitY=0;exitDx=0;exitDy=0;" edge="1" parent="1" source="vEpTsSg9mK53_fddwxGI-25" target="vEpTsSg9mK53_fddwxGI-13">
          <mxGeometry relative="1" as="geometry">
            <mxPoint x="630" y="305" as="sourcePoint" />
            <mxPoint x="730" y="290" as="targetPoint" />
          </mxGeometry>
        </mxCell>
        <mxCell id="vEpTsSg9mK53_fddwxGI-59" value="" style="endArrow=none;html=1;rounded=0;entryX=0.609;entryY=1.041;entryDx=0;entryDy=0;exitX=0.5;exitY=0;exitDx=0;exitDy=0;entryPerimeter=0;" edge="1" parent="1" source="vEpTsSg9mK53_fddwxGI-25" target="vEpTsSg9mK53_fddwxGI-23">
          <mxGeometry relative="1" as="geometry">
            <mxPoint x="630" y="305" as="sourcePoint" />
            <mxPoint x="710" y="210" as="targetPoint" />
          </mxGeometry>
        </mxCell>
        <mxCell id="vEpTsSg9mK53_fddwxGI-60" value="" style="endArrow=none;html=1;rounded=0;exitX=1;exitY=1;exitDx=0;exitDy=0;entryX=0.5;entryY=0;entryDx=0;entryDy=0;" edge="1" parent="1" source="vEpTsSg9mK53_fddwxGI-28" target="vEpTsSg9mK53_fddwxGI-30">
          <mxGeometry relative="1" as="geometry">
            <mxPoint x="750" y="310" as="sourcePoint" />
            <mxPoint x="910" y="310" as="targetPoint" />
          </mxGeometry>
        </mxCell>
        <mxCell id="vEpTsSg9mK53_fddwxGI-61" value="" style="endArrow=none;html=1;rounded=0;exitX=0;exitY=1;exitDx=0;exitDy=0;entryX=0.5;entryY=0;entryDx=0;entryDy=0;" edge="1" parent="1" source="vEpTsSg9mK53_fddwxGI-29" target="vEpTsSg9mK53_fddwxGI-30">
          <mxGeometry relative="1" as="geometry">
            <mxPoint x="920" y="260" as="sourcePoint" />
            <mxPoint x="1010" y="275" as="targetPoint" />
          </mxGeometry>
        </mxCell>
        <mxCell id="vEpTsSg9mK53_fddwxGI-62" value="" style="endArrow=none;html=1;rounded=0;exitX=0.5;exitY=1;exitDx=0;exitDy=0;entryX=0.5;entryY=0;entryDx=0;entryDy=0;" edge="1" parent="1" source="vEpTsSg9mK53_fddwxGI-26" target="vEpTsSg9mK53_fddwxGI-30">
          <mxGeometry relative="1" as="geometry">
            <mxPoint x="1090" y="260" as="sourcePoint" />
            <mxPoint x="1080" y="290" as="targetPoint" />
          </mxGeometry>
        </mxCell>
        <mxCell id="vEpTsSg9mK53_fddwxGI-63" value="" style="endArrow=none;html=1;rounded=0;exitX=0.5;exitY=1;exitDx=0;exitDy=0;entryX=0.5;entryY=0;entryDx=0;entryDy=0;" edge="1" parent="1" source="vEpTsSg9mK53_fddwxGI-27" target="vEpTsSg9mK53_fddwxGI-30">
          <mxGeometry relative="1" as="geometry">
            <mxPoint x="940" y="200" as="sourcePoint" />
            <mxPoint x="1010" y="275" as="targetPoint" />
          </mxGeometry>
        </mxCell>
        <mxCell id="vEpTsSg9mK53_fddwxGI-65" value="" style="endArrow=none;html=1;rounded=0;entryX=0.5;entryY=1;entryDx=0;entryDy=0;exitX=0;exitY=0.5;exitDx=0;exitDy=0;" edge="1" parent="1" source="vEpTsSg9mK53_fddwxGI-38" target="vEpTsSg9mK53_fddwxGI-31">
          <mxGeometry relative="1" as="geometry">
            <mxPoint x="700" y="400" as="sourcePoint" />
            <mxPoint x="860" y="400" as="targetPoint" />
          </mxGeometry>
        </mxCell>
        <mxCell id="vEpTsSg9mK53_fddwxGI-68" value="" style="endArrow=none;html=1;rounded=0;entryX=1;entryY=1;entryDx=0;entryDy=0;exitX=0;exitY=0.5;exitDx=0;exitDy=0;" edge="1" parent="1" source="vEpTsSg9mK53_fddwxGI-38" target="vEpTsSg9mK53_fddwxGI-32">
          <mxGeometry relative="1" as="geometry">
            <mxPoint x="950" y="490" as="sourcePoint" />
            <mxPoint x="920" y="400" as="targetPoint" />
          </mxGeometry>
        </mxCell>
        <mxCell id="vEpTsSg9mK53_fddwxGI-69" value="" style="endArrow=none;html=1;rounded=0;entryX=0;entryY=0.5;entryDx=0;entryDy=0;exitX=1;exitY=0;exitDx=0;exitDy=0;" edge="1" parent="1" source="vEpTsSg9mK53_fddwxGI-33" target="vEpTsSg9mK53_fddwxGI-38">
          <mxGeometry relative="1" as="geometry">
            <mxPoint x="660" y="520" as="sourcePoint" />
            <mxPoint x="820" y="520" as="targetPoint" />
          </mxGeometry>
        </mxCell>
        <mxCell id="vEpTsSg9mK53_fddwxGI-70" value="" style="endArrow=none;html=1;rounded=0;entryX=0.5;entryY=1;entryDx=0;entryDy=0;exitX=1;exitY=0.5;exitDx=0;exitDy=0;" edge="1" parent="1" source="vEpTsSg9mK53_fddwxGI-38" target="vEpTsSg9mK53_fddwxGI-34">
          <mxGeometry relative="1" as="geometry">
            <mxPoint x="880" y="530" as="sourcePoint" />
            <mxPoint x="1040" y="530" as="targetPoint" />
          </mxGeometry>
        </mxCell>
        <mxCell id="vEpTsSg9mK53_fddwxGI-71" value="" style="endArrow=none;html=1;rounded=0;entryX=0;entryY=1;entryDx=0;entryDy=0;exitX=1;exitY=0.5;exitDx=0;exitDy=0;" edge="1" parent="1" source="vEpTsSg9mK53_fddwxGI-38" target="vEpTsSg9mK53_fddwxGI-35">
          <mxGeometry relative="1" as="geometry">
            <mxPoint x="1040" y="455" as="sourcePoint" />
            <mxPoint x="1080" y="380" as="targetPoint" />
          </mxGeometry>
        </mxCell>
        <mxCell id="vEpTsSg9mK53_fddwxGI-72" value="" style="endArrow=none;html=1;rounded=0;entryX=0;entryY=0;entryDx=0;entryDy=0;exitX=1;exitY=0.5;exitDx=0;exitDy=0;" edge="1" parent="1" source="vEpTsSg9mK53_fddwxGI-38" target="vEpTsSg9mK53_fddwxGI-36">
          <mxGeometry relative="1" as="geometry">
            <mxPoint x="1040" y="455" as="sourcePoint" />
            <mxPoint x="1090" y="440" as="targetPoint" />
          </mxGeometry>
        </mxCell>
        <mxCell id="vEpTsSg9mK53_fddwxGI-73" value="" style="endArrow=none;html=1;rounded=0;entryX=0.5;entryY=0;entryDx=0;entryDy=0;exitX=1;exitY=0.5;exitDx=0;exitDy=0;" edge="1" parent="1" source="vEpTsSg9mK53_fddwxGI-38" target="vEpTsSg9mK53_fddwxGI-37">
          <mxGeometry relative="1" as="geometry">
            <mxPoint x="1040" y="455" as="sourcePoint" />
            <mxPoint x="1090" y="510" as="targetPoint" />
          </mxGeometry>
        </mxCell>
        <mxCell id="vEpTsSg9mK53_fddwxGI-75" value="" style="endArrow=none;html=1;rounded=0;entryX=0.25;entryY=1;entryDx=0;entryDy=0;exitX=1;exitY=0.5;exitDx=0;exitDy=0;" edge="1" parent="1" source="vEpTsSg9mK53_fddwxGI-39" target="vEpTsSg9mK53_fddwxGI-40">
          <mxGeometry relative="1" as="geometry">
            <mxPoint x="780" y="610" as="sourcePoint" />
            <mxPoint x="940" y="610" as="targetPoint" />
          </mxGeometry>
        </mxCell>
        <mxCell id="vEpTsSg9mK53_fddwxGI-76" value="" style="endArrow=none;html=1;rounded=0;entryX=0.427;entryY=1.012;entryDx=0;entryDy=0;exitX=1;exitY=0;exitDx=0;exitDy=0;entryPerimeter=0;" edge="1" parent="1" source="vEpTsSg9mK53_fddwxGI-45" target="vEpTsSg9mK53_fddwxGI-40">
          <mxGeometry relative="1" as="geometry">
            <mxPoint x="950" y="710" as="sourcePoint" />
            <mxPoint x="975" y="670" as="targetPoint" />
          </mxGeometry>
        </mxCell>
        <mxCell id="vEpTsSg9mK53_fddwxGI-77" value="" style="endArrow=none;html=1;rounded=0;entryX=0.5;entryY=1;entryDx=0;entryDy=0;exitX=0.5;exitY=0;exitDx=0;exitDy=0;" edge="1" parent="1" source="vEpTsSg9mK53_fddwxGI-44" target="vEpTsSg9mK53_fddwxGI-40">
          <mxGeometry relative="1" as="geometry">
            <mxPoint x="945" y="746" as="sourcePoint" />
            <mxPoint x="993" y="670" as="targetPoint" />
          </mxGeometry>
        </mxCell>
        <mxCell id="vEpTsSg9mK53_fddwxGI-78" value="" style="endArrow=none;html=1;rounded=0;entryX=0.592;entryY=1.041;entryDx=0;entryDy=0;exitX=0.5;exitY=0;exitDx=0;exitDy=0;entryPerimeter=0;" edge="1" parent="1" source="vEpTsSg9mK53_fddwxGI-43" target="vEpTsSg9mK53_fddwxGI-40">
          <mxGeometry relative="1" as="geometry">
            <mxPoint x="940" y="790" as="sourcePoint" />
            <mxPoint x="1000" y="670" as="targetPoint" />
          </mxGeometry>
        </mxCell>
        <mxCell id="vEpTsSg9mK53_fddwxGI-79" value="" style="endArrow=none;html=1;rounded=0;entryX=0.75;entryY=1;entryDx=0;entryDy=0;exitX=0;exitY=0;exitDx=0;exitDy=0;" edge="1" parent="1" source="vEpTsSg9mK53_fddwxGI-42" target="vEpTsSg9mK53_fddwxGI-40">
          <mxGeometry relative="1" as="geometry">
            <mxPoint x="1050" y="790" as="sourcePoint" />
            <mxPoint x="1009" y="672" as="targetPoint" />
          </mxGeometry>
        </mxCell>
        <mxCell id="vEpTsSg9mK53_fddwxGI-80" value="" style="endArrow=none;html=1;rounded=0;entryX=1;entryY=1;entryDx=0;entryDy=0;exitX=0;exitY=0.5;exitDx=0;exitDy=0;" edge="1" parent="1" source="vEpTsSg9mK53_fddwxGI-41" target="vEpTsSg9mK53_fddwxGI-40">
          <mxGeometry relative="1" as="geometry">
            <mxPoint x="1065" y="746" as="sourcePoint" />
            <mxPoint x="1025" y="670" as="targetPoint" />
          </mxGeometry>
        </mxCell>
        <mxCell id="vEpTsSg9mK53_fddwxGI-81" value="" style="endArrow=none;html=1;rounded=0;entryX=0;entryY=0.5;entryDx=0;entryDy=0;exitX=1;exitY=0.5;exitDx=0;exitDy=0;" edge="1" parent="1" source="vEpTsSg9mK53_fddwxGI-21" target="vEpTsSg9mK53_fddwxGI-25">
          <mxGeometry relative="1" as="geometry">
            <mxPoint x="330" y="340" as="sourcePoint" />
            <mxPoint x="470" y="340" as="targetPoint" />
          </mxGeometry>
        </mxCell>
        <mxCell id="vEpTsSg9mK53_fddwxGI-82" value="" style="endArrow=none;html=1;rounded=0;exitX=1;exitY=0.5;exitDx=0;exitDy=0;entryX=0;entryY=0.5;entryDx=0;entryDy=0;" edge="1" parent="1" source="vEpTsSg9mK53_fddwxGI-25" target="vEpTsSg9mK53_fddwxGI-30">
          <mxGeometry relative="1" as="geometry">
            <mxPoint x="720" y="339.40999999999997" as="sourcePoint" />
            <mxPoint x="880" y="339.40999999999997" as="targetPoint" />
          </mxGeometry>
        </mxCell>
        <mxCell id="vEpTsSg9mK53_fddwxGI-83" value="" style="endArrow=none;html=1;rounded=0;entryX=0.5;entryY=1;entryDx=0;entryDy=0;exitX=0.5;exitY=0;exitDx=0;exitDy=0;" edge="1" parent="1" source="vEpTsSg9mK53_fddwxGI-38" target="vEpTsSg9mK53_fddwxGI-30">
          <mxGeometry relative="1" as="geometry">
            <mxPoint x="660" y="420" as="sourcePoint" />
            <mxPoint x="820" y="420" as="targetPoint" />
          </mxGeometry>
        </mxCell>
        <mxCell id="vEpTsSg9mK53_fddwxGI-88" value="1" style="edgeLabel;html=1;align=center;verticalAlign=middle;resizable=0;points=[];" vertex="1" connectable="0" parent="vEpTsSg9mK53_fddwxGI-83">
          <mxGeometry x="0.4195" y="-1" relative="1" as="geometry">
            <mxPoint as="offset" />
          </mxGeometry>
        </mxCell>
        <mxCell id="vEpTsSg9mK53_fddwxGI-84" value="" style="endArrow=none;html=1;rounded=0;entryX=0.5;entryY=1;entryDx=0;entryDy=0;exitX=0.5;exitY=0;exitDx=0;exitDy=0;" edge="1" parent="1" source="vEpTsSg9mK53_fddwxGI-40" target="vEpTsSg9mK53_fddwxGI-38">
          <mxGeometry relative="1" as="geometry">
            <mxPoint x="660" y="610" as="sourcePoint" />
            <mxPoint x="820" y="610" as="targetPoint" />
          </mxGeometry>
        </mxCell>
        <mxCell id="vEpTsSg9mK53_fddwxGI-89" value="Many" style="edgeLabel;html=1;align=center;verticalAlign=middle;resizable=0;points=[];" vertex="1" connectable="0" parent="vEpTsSg9mK53_fddwxGI-84">
          <mxGeometry x="-0.0514" y="2" relative="1" as="geometry">
            <mxPoint as="offset" />
          </mxGeometry>
        </mxCell>
        <mxCell id="vEpTsSg9mK53_fddwxGI-85" value="Many" style="text;html=1;align=center;verticalAlign=middle;resizable=0;points=[];autosize=1;strokeColor=none;fillColor=none;" vertex="1" parent="1">
          <mxGeometry x="410" y="345" width="50" height="30" as="geometry" />
        </mxCell>
        <mxCell id="vEpTsSg9mK53_fddwxGI-87" value="Many" style="text;html=1;align=center;verticalAlign=middle;resizable=0;points=[];autosize=1;strokeColor=none;fillColor=none;" vertex="1" parent="1">
          <mxGeometry x="800" y="345" width="50" height="30" as="geometry" />
        </mxCell>
      </root>
    </mxGraphModel>
  </diagram>
</mxfile>
